<mxfile host="Electron" modified="2024-03-07T02:44:01.290Z" agent="Mozilla/5.0 (Windows NT 10.0; Win64; x64) AppleWebKit/537.36 (KHTML, like Gecko) draw.io/23.1.5 Chrome/120.0.6099.109 Electron/28.1.0 Safari/537.36" etag="5rxhAAa_5DolJ3BoNAQK" version="23.1.5" type="device">
  <diagram name="Página-1" id="E7iR8OeMe1wWlsRJZvQq">
    <mxGraphModel dx="2440" dy="1422" grid="1" gridSize="10" guides="1" tooltips="1" connect="1" arrows="1" fold="1" page="1" pageScale="1" pageWidth="1600" pageHeight="900" math="0" shadow="0">
      <root>
        <mxCell id="0" />
        <mxCell id="1" parent="0" />
        <mxCell id="nycTJcPWm1tqo9a05--M-3" value="rolUsuarios" style="whiteSpace=wrap;html=1;align=center;fillColor=default;" parent="1" vertex="1">
          <mxGeometry x="610" y="280" width="100" height="40" as="geometry" />
        </mxCell>
        <mxCell id="nycTJcPWm1tqo9a05--M-4" value="tipoMovimiento" style="whiteSpace=wrap;html=1;align=center;fillColor=default;" parent="1" vertex="1">
          <mxGeometry x="1260" y="290" width="100" height="40" as="geometry" />
        </mxCell>
        <mxCell id="nycTJcPWm1tqo9a05--M-5" value="Movimiento" style="whiteSpace=wrap;html=1;align=center;fillColor=default;" parent="1" vertex="1">
          <mxGeometry x="960" y="290" width="100" height="40" as="geometry" />
        </mxCell>
        <mxCell id="nycTJcPWm1tqo9a05--M-6" value="usuarios" style="whiteSpace=wrap;html=1;align=center;fillColor=default;" parent="1" vertex="1">
          <mxGeometry x="610" y="470" width="100" height="40" as="geometry" />
        </mxCell>
        <mxCell id="nycTJcPWm1tqo9a05--M-8" value="&lt;b&gt;&lt;font style=&quot;font-size: 23px;&quot;&gt;Banco de Agricultura Salvadoreño SA de CV&lt;/font&gt;&lt;/b&gt;" style="text;strokeColor=none;align=center;fillColor=none;html=1;verticalAlign=middle;whiteSpace=wrap;rounded=0;" parent="1" vertex="1">
          <mxGeometry x="290" y="190" width="500" height="30" as="geometry" />
        </mxCell>
        <mxCell id="nycTJcPWm1tqo9a05--M-10" value="estadoMovimiento" style="whiteSpace=wrap;html=1;align=center;fillColor=default;" parent="1" vertex="1">
          <mxGeometry x="950" y="100" width="120" height="40" as="geometry" />
        </mxCell>
        <mxCell id="nycTJcPWm1tqo9a05--M-11" value="cuentas" style="whiteSpace=wrap;html=1;align=center;fillColor=default;" parent="1" vertex="1">
          <mxGeometry x="960" y="470" width="100" height="40" as="geometry" />
        </mxCell>
        <mxCell id="nycTJcPWm1tqo9a05--M-13" value="tipoDeCuenta" style="whiteSpace=wrap;html=1;align=center;fillColor=default;" parent="1" vertex="1">
          <mxGeometry x="960" y="670" width="100" height="40" as="geometry" />
        </mxCell>
        <mxCell id="nycTJcPWm1tqo9a05--M-14" value="empleadosSucursal" style="whiteSpace=wrap;html=1;align=center;fillColor=default;" parent="1" vertex="1">
          <mxGeometry x="600" y="680" width="120" height="40" as="geometry" />
        </mxCell>
        <mxCell id="nycTJcPWm1tqo9a05--M-15" value="sucursal" style="whiteSpace=wrap;html=1;align=center;fillColor=default;" parent="1" vertex="1">
          <mxGeometry x="250" y="470" width="100" height="40" as="geometry" />
        </mxCell>
        <mxCell id="nycTJcPWm1tqo9a05--M-16" value="Trabajan" style="shape=rhombus;perimeter=rhombusPerimeter;whiteSpace=wrap;html=1;align=center;fillColor=default;" parent="1" vertex="1">
          <mxGeometry x="600" y="560" width="120" height="70" as="geometry" />
        </mxCell>
        <mxCell id="nycTJcPWm1tqo9a05--M-17" value="Tienen" style="shape=rhombus;perimeter=rhombusPerimeter;whiteSpace=wrap;html=1;align=center;fillColor=default;" parent="1" vertex="1">
          <mxGeometry x="600" y="360" width="120" height="60" as="geometry" />
        </mxCell>
        <mxCell id="nycTJcPWm1tqo9a05--M-18" value="Hace" style="shape=rhombus;perimeter=rhombusPerimeter;whiteSpace=wrap;html=1;align=center;fillColor=default;" parent="1" vertex="1">
          <mxGeometry x="950" y="370" width="120" height="60" as="geometry" />
        </mxCell>
        <mxCell id="nycTJcPWm1tqo9a05--M-19" value="Tienen" style="shape=rhombus;perimeter=rhombusPerimeter;whiteSpace=wrap;html=1;align=center;fillColor=default;" parent="1" vertex="1">
          <mxGeometry x="950" y="180" width="120" height="60" as="geometry" />
        </mxCell>
        <mxCell id="nycTJcPWm1tqo9a05--M-20" value="Tiene" style="shape=rhombus;perimeter=rhombusPerimeter;whiteSpace=wrap;html=1;align=center;fillColor=default;" parent="1" vertex="1">
          <mxGeometry x="950" y="560" width="120" height="60" as="geometry" />
        </mxCell>
        <mxCell id="nycTJcPWm1tqo9a05--M-21" value="Relationship" style="shape=rhombus;perimeter=rhombusPerimeter;whiteSpace=wrap;html=1;align=center;fillColor=default;" parent="1" vertex="1">
          <mxGeometry x="770" y="460" width="120" height="60" as="geometry" />
        </mxCell>
        <mxCell id="nycTJcPWm1tqo9a05--M-22" value="Pertenecen" style="shape=rhombus;perimeter=rhombusPerimeter;whiteSpace=wrap;html=1;align=center;fillColor=default;" parent="1" vertex="1">
          <mxGeometry x="420" y="460" width="120" height="60" as="geometry" />
        </mxCell>
        <mxCell id="nycTJcPWm1tqo9a05--M-26" value="" style="endArrow=none;html=1;rounded=0;entryX=0.5;entryY=1;entryDx=0;entryDy=0;" parent="1" source="nycTJcPWm1tqo9a05--M-16" target="nycTJcPWm1tqo9a05--M-6" edge="1">
          <mxGeometry relative="1" as="geometry">
            <mxPoint x="630" y="640" as="sourcePoint" />
            <mxPoint x="790" y="640" as="targetPoint" />
          </mxGeometry>
        </mxCell>
        <mxCell id="nycTJcPWm1tqo9a05--M-27" value="1" style="resizable=0;html=1;whiteSpace=wrap;align=right;verticalAlign=bottom;" parent="nycTJcPWm1tqo9a05--M-26" connectable="0" vertex="1">
          <mxGeometry x="1" relative="1" as="geometry">
            <mxPoint x="20" y="20" as="offset" />
          </mxGeometry>
        </mxCell>
        <mxCell id="nycTJcPWm1tqo9a05--M-28" value="" style="endArrow=none;html=1;rounded=0;exitX=0.5;exitY=1;exitDx=0;exitDy=0;entryX=0.5;entryY=0;entryDx=0;entryDy=0;" parent="1" source="nycTJcPWm1tqo9a05--M-16" target="nycTJcPWm1tqo9a05--M-14" edge="1">
          <mxGeometry relative="1" as="geometry">
            <mxPoint x="630" y="640" as="sourcePoint" />
            <mxPoint x="790" y="640" as="targetPoint" />
          </mxGeometry>
        </mxCell>
        <mxCell id="nycTJcPWm1tqo9a05--M-29" value="N" style="resizable=0;html=1;whiteSpace=wrap;align=right;verticalAlign=bottom;" parent="nycTJcPWm1tqo9a05--M-28" connectable="0" vertex="1">
          <mxGeometry x="1" relative="1" as="geometry">
            <mxPoint x="20" as="offset" />
          </mxGeometry>
        </mxCell>
        <mxCell id="nycTJcPWm1tqo9a05--M-33" value="" style="endArrow=none;html=1;rounded=0;entryX=1;entryY=0.5;entryDx=0;entryDy=0;exitX=0;exitY=0.5;exitDx=0;exitDy=0;" parent="1" source="nycTJcPWm1tqo9a05--M-22" target="nycTJcPWm1tqo9a05--M-15" edge="1">
          <mxGeometry relative="1" as="geometry">
            <mxPoint x="630" y="550" as="sourcePoint" />
            <mxPoint x="790" y="550" as="targetPoint" />
          </mxGeometry>
        </mxCell>
        <mxCell id="nycTJcPWm1tqo9a05--M-34" value="1" style="resizable=0;html=1;whiteSpace=wrap;align=right;verticalAlign=bottom;" parent="nycTJcPWm1tqo9a05--M-33" connectable="0" vertex="1">
          <mxGeometry x="1" relative="1" as="geometry">
            <mxPoint x="10" as="offset" />
          </mxGeometry>
        </mxCell>
        <mxCell id="nycTJcPWm1tqo9a05--M-35" value="" style="endArrow=none;html=1;rounded=0;exitX=1;exitY=0.5;exitDx=0;exitDy=0;entryX=0;entryY=0.5;entryDx=0;entryDy=0;" parent="1" source="nycTJcPWm1tqo9a05--M-22" target="nycTJcPWm1tqo9a05--M-6" edge="1">
          <mxGeometry relative="1" as="geometry">
            <mxPoint x="670" y="640" as="sourcePoint" />
            <mxPoint x="670" y="690" as="targetPoint" />
          </mxGeometry>
        </mxCell>
        <mxCell id="nycTJcPWm1tqo9a05--M-36" value="N" style="resizable=0;html=1;whiteSpace=wrap;align=right;verticalAlign=bottom;" parent="nycTJcPWm1tqo9a05--M-35" connectable="0" vertex="1">
          <mxGeometry x="1" relative="1" as="geometry" />
        </mxCell>
        <mxCell id="nycTJcPWm1tqo9a05--M-38" value="" style="endArrow=none;html=1;rounded=0;entryX=1;entryY=0.5;entryDx=0;entryDy=0;exitX=0;exitY=0.5;exitDx=0;exitDy=0;" parent="1" source="nycTJcPWm1tqo9a05--M-21" target="nycTJcPWm1tqo9a05--M-6" edge="1">
          <mxGeometry relative="1" as="geometry">
            <mxPoint x="430" y="500" as="sourcePoint" />
            <mxPoint x="360" y="500" as="targetPoint" />
          </mxGeometry>
        </mxCell>
        <mxCell id="nycTJcPWm1tqo9a05--M-39" value="1" style="resizable=0;html=1;whiteSpace=wrap;align=right;verticalAlign=bottom;" parent="nycTJcPWm1tqo9a05--M-38" connectable="0" vertex="1">
          <mxGeometry x="1" relative="1" as="geometry">
            <mxPoint x="10" as="offset" />
          </mxGeometry>
        </mxCell>
        <mxCell id="nycTJcPWm1tqo9a05--M-40" value="" style="endArrow=none;html=1;rounded=0;exitX=1;exitY=0.5;exitDx=0;exitDy=0;entryX=0;entryY=0.5;entryDx=0;entryDy=0;" parent="1" source="nycTJcPWm1tqo9a05--M-21" target="nycTJcPWm1tqo9a05--M-11" edge="1">
          <mxGeometry relative="1" as="geometry">
            <mxPoint x="670" y="640" as="sourcePoint" />
            <mxPoint x="670" y="690" as="targetPoint" />
          </mxGeometry>
        </mxCell>
        <mxCell id="nycTJcPWm1tqo9a05--M-41" value="N" style="resizable=0;html=1;whiteSpace=wrap;align=right;verticalAlign=bottom;" parent="nycTJcPWm1tqo9a05--M-40" connectable="0" vertex="1">
          <mxGeometry x="1" relative="1" as="geometry" />
        </mxCell>
        <mxCell id="nycTJcPWm1tqo9a05--M-43" value="" style="endArrow=none;html=1;rounded=0;entryX=0.5;entryY=1;entryDx=0;entryDy=0;exitX=0.5;exitY=0;exitDx=0;exitDy=0;" parent="1" source="nycTJcPWm1tqo9a05--M-20" target="nycTJcPWm1tqo9a05--M-11" edge="1">
          <mxGeometry relative="1" as="geometry">
            <mxPoint x="800" y="620" as="sourcePoint" />
            <mxPoint x="680" y="700" as="targetPoint" />
          </mxGeometry>
        </mxCell>
        <mxCell id="nycTJcPWm1tqo9a05--M-44" value="N" style="resizable=0;html=1;whiteSpace=wrap;align=right;verticalAlign=bottom;" parent="nycTJcPWm1tqo9a05--M-43" connectable="0" vertex="1">
          <mxGeometry x="1" relative="1" as="geometry">
            <mxPoint x="20" y="20" as="offset" />
          </mxGeometry>
        </mxCell>
        <mxCell id="nycTJcPWm1tqo9a05--M-45" value="" style="endArrow=none;html=1;rounded=0;entryX=0.5;entryY=0;entryDx=0;entryDy=0;exitX=0.5;exitY=1;exitDx=0;exitDy=0;" parent="1" source="nycTJcPWm1tqo9a05--M-20" target="nycTJcPWm1tqo9a05--M-13" edge="1">
          <mxGeometry relative="1" as="geometry">
            <mxPoint x="780" y="500" as="sourcePoint" />
            <mxPoint x="720" y="500" as="targetPoint" />
          </mxGeometry>
        </mxCell>
        <mxCell id="nycTJcPWm1tqo9a05--M-46" value="1" style="resizable=0;html=1;whiteSpace=wrap;align=right;verticalAlign=bottom;" parent="nycTJcPWm1tqo9a05--M-45" connectable="0" vertex="1">
          <mxGeometry x="1" relative="1" as="geometry">
            <mxPoint x="20" as="offset" />
          </mxGeometry>
        </mxCell>
        <mxCell id="nycTJcPWm1tqo9a05--M-47" value="" style="endArrow=none;html=1;rounded=0;entryX=0.5;entryY=0;entryDx=0;entryDy=0;exitX=0.5;exitY=1;exitDx=0;exitDy=0;" parent="1" source="nycTJcPWm1tqo9a05--M-18" target="nycTJcPWm1tqo9a05--M-11" edge="1">
          <mxGeometry relative="1" as="geometry">
            <mxPoint x="1020" y="630" as="sourcePoint" />
            <mxPoint x="1020" y="680" as="targetPoint" />
            <Array as="points" />
          </mxGeometry>
        </mxCell>
        <mxCell id="nycTJcPWm1tqo9a05--M-48" value="1" style="resizable=0;html=1;whiteSpace=wrap;align=right;verticalAlign=bottom;" parent="nycTJcPWm1tqo9a05--M-47" connectable="0" vertex="1">
          <mxGeometry x="1" relative="1" as="geometry">
            <mxPoint x="20" as="offset" />
          </mxGeometry>
        </mxCell>
        <mxCell id="nycTJcPWm1tqo9a05--M-49" value="" style="endArrow=none;html=1;rounded=0;entryX=0.5;entryY=1;entryDx=0;entryDy=0;" parent="1" target="nycTJcPWm1tqo9a05--M-3" edge="1">
          <mxGeometry relative="1" as="geometry">
            <mxPoint x="660" y="360" as="sourcePoint" />
            <mxPoint x="1020" y="480" as="targetPoint" />
          </mxGeometry>
        </mxCell>
        <mxCell id="nycTJcPWm1tqo9a05--M-50" value="1" style="resizable=0;html=1;whiteSpace=wrap;align=right;verticalAlign=bottom;" parent="nycTJcPWm1tqo9a05--M-49" connectable="0" vertex="1">
          <mxGeometry x="1" relative="1" as="geometry">
            <mxPoint x="20" y="20" as="offset" />
          </mxGeometry>
        </mxCell>
        <mxCell id="nycTJcPWm1tqo9a05--M-51" value="" style="endArrow=none;html=1;rounded=0;exitX=0.5;exitY=1;exitDx=0;exitDy=0;entryX=0.5;entryY=0;entryDx=0;entryDy=0;" parent="1" source="nycTJcPWm1tqo9a05--M-17" target="nycTJcPWm1tqo9a05--M-6" edge="1">
          <mxGeometry relative="1" as="geometry">
            <mxPoint x="900" y="500" as="sourcePoint" />
            <mxPoint x="970" y="500" as="targetPoint" />
          </mxGeometry>
        </mxCell>
        <mxCell id="nycTJcPWm1tqo9a05--M-52" value="N" style="resizable=0;html=1;whiteSpace=wrap;align=right;verticalAlign=bottom;" parent="nycTJcPWm1tqo9a05--M-51" connectable="0" vertex="1">
          <mxGeometry x="1" relative="1" as="geometry">
            <mxPoint x="20" as="offset" />
          </mxGeometry>
        </mxCell>
        <mxCell id="nycTJcPWm1tqo9a05--M-53" value="Tiene" style="shape=rhombus;perimeter=rhombusPerimeter;whiteSpace=wrap;html=1;align=center;fillColor=default;" parent="1" vertex="1">
          <mxGeometry x="1100" y="280" width="120" height="60" as="geometry" />
        </mxCell>
        <mxCell id="nycTJcPWm1tqo9a05--M-54" value="" style="endArrow=none;html=1;rounded=0;entryX=0.5;entryY=1;entryDx=0;entryDy=0;" parent="1" source="nycTJcPWm1tqo9a05--M-18" target="nycTJcPWm1tqo9a05--M-5" edge="1">
          <mxGeometry relative="1" as="geometry">
            <mxPoint x="900" y="500" as="sourcePoint" />
            <mxPoint x="970" y="500" as="targetPoint" />
          </mxGeometry>
        </mxCell>
        <mxCell id="nycTJcPWm1tqo9a05--M-55" value="N" style="resizable=0;html=1;whiteSpace=wrap;align=right;verticalAlign=bottom;" parent="nycTJcPWm1tqo9a05--M-54" connectable="0" vertex="1">
          <mxGeometry x="1" relative="1" as="geometry">
            <mxPoint x="20" y="20" as="offset" />
          </mxGeometry>
        </mxCell>
        <mxCell id="nycTJcPWm1tqo9a05--M-65" value="" style="endArrow=none;html=1;rounded=0;entryX=0;entryY=0.5;entryDx=0;entryDy=0;exitX=1;exitY=0.5;exitDx=0;exitDy=0;" parent="1" source="nycTJcPWm1tqo9a05--M-53" target="nycTJcPWm1tqo9a05--M-4" edge="1">
          <mxGeometry relative="1" as="geometry">
            <mxPoint x="1220" y="360" as="sourcePoint" />
            <mxPoint x="1070" y="320" as="targetPoint" />
          </mxGeometry>
        </mxCell>
        <mxCell id="nycTJcPWm1tqo9a05--M-66" value="1" style="resizable=0;html=1;whiteSpace=wrap;align=right;verticalAlign=bottom;" parent="nycTJcPWm1tqo9a05--M-65" connectable="0" vertex="1">
          <mxGeometry x="1" relative="1" as="geometry">
            <mxPoint as="offset" />
          </mxGeometry>
        </mxCell>
        <mxCell id="nycTJcPWm1tqo9a05--M-70" value="" style="endArrow=none;html=1;rounded=0;entryX=0.5;entryY=1;entryDx=0;entryDy=0;exitX=0.5;exitY=0;exitDx=0;exitDy=0;" parent="1" source="nycTJcPWm1tqo9a05--M-19" target="nycTJcPWm1tqo9a05--M-10" edge="1">
          <mxGeometry relative="1" as="geometry">
            <mxPoint x="1010" y="190" as="sourcePoint" />
            <mxPoint x="1270" y="320" as="targetPoint" />
          </mxGeometry>
        </mxCell>
        <mxCell id="nycTJcPWm1tqo9a05--M-71" value="1" style="resizable=0;html=1;whiteSpace=wrap;align=right;verticalAlign=bottom;" parent="nycTJcPWm1tqo9a05--M-70" connectable="0" vertex="1">
          <mxGeometry x="1" relative="1" as="geometry">
            <mxPoint x="20" y="20" as="offset" />
          </mxGeometry>
        </mxCell>
        <mxCell id="nycTJcPWm1tqo9a05--M-73" value="" style="endArrow=none;html=1;rounded=0;entryX=1;entryY=0.5;entryDx=0;entryDy=0;exitX=0;exitY=0.5;exitDx=0;exitDy=0;" parent="1" source="nycTJcPWm1tqo9a05--M-53" target="nycTJcPWm1tqo9a05--M-5" edge="1">
          <mxGeometry relative="1" as="geometry">
            <mxPoint x="1020" y="380" as="sourcePoint" />
            <mxPoint x="1020" y="340" as="targetPoint" />
          </mxGeometry>
        </mxCell>
        <mxCell id="nycTJcPWm1tqo9a05--M-74" value="N" style="resizable=0;html=1;whiteSpace=wrap;align=right;verticalAlign=bottom;" parent="nycTJcPWm1tqo9a05--M-73" connectable="0" vertex="1">
          <mxGeometry x="1" relative="1" as="geometry">
            <mxPoint x="20" as="offset" />
          </mxGeometry>
        </mxCell>
        <mxCell id="nycTJcPWm1tqo9a05--M-79" value="" style="endArrow=none;html=1;rounded=0;entryX=0.5;entryY=0;entryDx=0;entryDy=0;exitX=0.5;exitY=1;exitDx=0;exitDy=0;" parent="1" source="nycTJcPWm1tqo9a05--M-19" target="nycTJcPWm1tqo9a05--M-5" edge="1">
          <mxGeometry relative="1" as="geometry">
            <mxPoint x="1020" y="380" as="sourcePoint" />
            <mxPoint x="1020" y="340" as="targetPoint" />
          </mxGeometry>
        </mxCell>
        <mxCell id="nycTJcPWm1tqo9a05--M-80" value="N" style="resizable=0;html=1;whiteSpace=wrap;align=right;verticalAlign=bottom;" parent="nycTJcPWm1tqo9a05--M-79" connectable="0" vertex="1">
          <mxGeometry x="1" relative="1" as="geometry">
            <mxPoint x="20" y="-1" as="offset" />
          </mxGeometry>
        </mxCell>
      </root>
    </mxGraphModel>
  </diagram>
</mxfile>
